<svg width="35" height="26" viewBox="0 0 35 26" fill="none" xmlns="http://www.w3.org/2000/svg">
<g filter="url(#filter0_b_8167_14786)">
<path d="M33.8633 21C33.8633 21.4434 33.5549 21.9704 32.7419 22.5357C31.9436 23.0908 30.7558 23.6109 29.243 24.0559C26.224 24.9438 22.0238 25.5 17.3633 25.5C12.7028 25.5 8.50252 24.9438 5.48355 24.0559C3.97079 23.6109 2.78299 23.0908 1.98468 22.5357C1.17166 21.9704 0.863281 21.4434 0.863281 21C0.863281 20.5566 1.17166 20.0296 1.98468 19.4643C2.78299 18.9092 3.97079 18.3891 5.48355 17.9441C8.50252 17.0562 12.7028 16.5 17.3633 16.5C22.0238 16.5 26.224 17.0562 29.243 17.9441C30.7558 18.3891 31.9436 18.9092 32.7419 19.4643C33.5549 20.0296 33.8633 20.5566 33.8633 21Z" stroke="white" stroke-opacity="0.2"/>
</g>
<path d="M25.9834 8.45C24.9334 3.83 20.9034 1.75 17.3634 1.75C17.3634 1.75 17.3634 1.75 17.3534 1.75C13.8234 1.75 9.78338 3.82 8.73338 8.44C7.56338 13.6 10.7234 17.97 13.5834 20.72C14.6434 21.74 16.0034 22.25 17.3634 22.25C18.7234 22.25 20.0834 21.74 21.1334 20.72C23.9934 17.97 27.1534 13.61 25.9834 8.45Z" fill="#E64827"/>
<path d="M17.3634 13.4602C19.1031 13.4602 20.5134 12.0499 20.5134 10.3102C20.5134 8.57046 19.1031 7.16016 17.3634 7.16016C15.6237 7.16016 14.2134 8.57046 14.2134 10.3102C14.2134 12.0499 15.6237 13.4602 17.3634 13.4602Z" fill="white"/>
<defs>
<filter id="filter0_b_8167_14786" x="-3.63672" y="12" width="42" height="18" filterUnits="userSpaceOnUse" color-interpolation-filters="sRGB">
<feFlood flood-opacity="0" result="BackgroundImageFix"/>
<feGaussianBlur in="BackgroundImageFix" stdDeviation="2"/>
<feComposite in2="SourceAlpha" operator="in" result="effect1_backgroundBlur_8167_14786"/>
<feBlend mode="normal" in="SourceGraphic" in2="effect1_backgroundBlur_8167_14786" result="shape"/>
</filter>
</defs>
</svg>
